<svg xmlns="http://www.w3.org/2000/svg" version="1.1" width="600px" height="600px" viewBox="0 0 200 200" style="overflow:hidden!important;"><g id="svga-group-wrapper"><g id="svga-group-backs-single"><path id="SvgjsPath8074" d="M0 0h200v200H0V0z" fill="#f1d4af" stroke-width="none" opacity="1" stroke="none"></path></g><g id="svga-group-humanwrap-move" transform="matrix(1,0,0,1,0,0)"><g id="svga-group-humanwrap"><g id="svga-group-hair-back-move" transform="matrix(1,0,0,1,0,0)"><g id="svga-group-hair-back"></g></g><g id="svga-group-humanbody-back"><path id="SvgjsPath3888" d="m170 180.3-27.3-6.9-18-9.9-1.5-28.2H76.8l-1.5 28.2-18 9.9-27.3 6.9-9.1 19.7-3 20h164.2l-3-20z" fill="#f0c7b1" stroke-width="none" opacity="1" stroke="none"></path><path id="SvgjsPath3889" d="m76.8 135.3-1.5 28.2-18 9.9-27.3 6.9-9.1 19.7-3 20h14.6v-20l2.7-17.7 23.8-6.4 24.7-8.3 3.5-32.3z" fill="#d19271" stroke-width="none" opacity="1" stroke="none"></path></g><g id="svga-group-chinshadow-single"><path id="SvgjsPath4233" d="m124.1 152-.9-16.7H76.8l-1 18.5 21.3 3.8v.1l.1-.1v.1-.1l25.1-4.5z" fill="#c27b55" stroke-width="none" opacity="1" stroke="none"></path></g><g id="svga-group-humanbody-front"><path id="SvgjsPath3890" d="m92.8 168.3 2 7.9 6.9 4.6s-8.5-3-8.7-3.6c-.2-.6-.2-8.9-.2-8.9z" fill="#d19271" stroke-width="none" opacity="1" stroke="none"></path></g><g id="svga-group-clothes-single"><path id="SvgjsPath7834" d="m127 164.4-1.2-2.1-1-5-8.7 10.1-16.1 12.7-16.1-12.7-8.7-10.1-1 5-1.2 2.1L87.8 220h24.4z" fill="#f7f7f7" stroke-width="none" opacity="1"></path><path id="SvgjsPath7835" d="m87.3 186.5-5.8 8.7.4 1.4 6.2-9 7.8-6.5 4.1-1.1-4.2.4-8.5 6.1zm25.4 0-8.4-6.1-4.2-.4 4.1 1.1 3.7 3.3-4.8 10.3 2.7 25.2h4.2l-2.2-16.4-1.2-7.2 1.3-2.8 3.5-6.4.6.5 6.2 9 .4-1.4-5.9-8.7z" fill="#cecece" stroke-width="none" opacity="1"></path><path id="SvgjsPath7836" d="m73.3 163.7-14.9 7.1.3.9-6.5 1.5-24.6 6.2-4.3-.5-2.2 2.6-4.7 38.5h73.7L78 179.4l-4.7-15.7zM179 181.5l-2.2-2.6-4.3.5-24.6-6.2-6.5-1.5.3-.9-14.9-7.1-4.7 15.7-12.2 40.6h73.7l-4.6-38.5z" fill="#202523" stroke-width="none" opacity="1"></path><path id="SvgjsPath7837" d="m32.2 186.6-4.3-6.1 3.5 7 3.4 17 1.3 15.5-.2-16-3.7-17.4zm38.1-17-9.6 4.6-2.1-2.5 1.3 2.8-3.7 1.8L75.6 220h1.8l-19.2-43.3 12.1-7.1zM21 181.5 16.4 220H23c.1-4.2.2-13.1.1-13.9-.1-1 1.4-23.2 1.4-23.2l2.3-3.6-3.4-.4-2.4 2.6zm146.8 5.1-3.6 17.4-.1 15.9 1.3-15.5 3.4-17 3.5-7-4.5 6.2zm-26.5-14.9-2.1 2.5-9.6-4.6 12.1 7.1-19.1 43.3h1.8l19.3-43.7-3.7-1.8 1.3-2.8z" fill="#040606" stroke-width="none" opacity="1"></path><path id="SvgjsPath7838" d="m103.7 195.3 4.9-10.7-4.4-3.8-4.2-.7-4.2.7-4.4 3.8 4.9 10.7-3 10.2L92 220h16l-1.3-14.5z" fill="#222222" stroke-width="none" opacity="1"></path><path id="SvgjsPath7839" d="m96.7 195.3 1.2.1-.6 6.2 1.7.1-.3-6.1 1.7.1-.3 8.3h2.3l-1-8.2 1.8-.4-3.9-.3z" fill="#000000" stroke-width="none" opacity="1"></path></g><g id="svga-group-head" transform="matrix(1,0,0,1,0,0)"><g id="svga-group-ears-left-move" transform="matrix(1,0,0,1,0,0)"><g id="svga-group-ears-left"><path id="SvgjsPath4918" d="M60.9 93s-5.5-3-7.7-3.9c0 0-3.9 5.4-5.1 7.2 0 0 3.1 14.7 3.9 17.3l5 6.5 5.4-1.7 4.2-14.2L60.9 93z" fill="#f0c7b1" stroke-width="none" opacity="1"></path><path id="SvgjsPath4919" d="M58.8 104.7c-.2-.4-6-10-6-10l-2.3 7.9 2.6-2.4 1.6 2.9s-.3 5-.2 5.5c0 .5 2.4 4.3 2.4 4.3l1.9-8.2z" fill="#d19271" stroke-width="none" opacity="1"></path><path id="SvgjsPath4920" d="m58.4 98-5.2-8.9c2.2.9 7.7 1.8 7.7 1.8l5.7 13.3-4.2 14.2-5.4 1.7 3.6-3.4L58.4 98z" fill="#e1ac8f" stroke-width="none" opacity="1"></path></g></g><g id="svga-group-ears-right-move" transform="matrix(1,0,0,1,0,0)"><g id="svga-group-ears-right"><path id="SvgjsPath4921" d="M139.1 93s5.5-3 7.7-3.9c0 0 3.9 5.4 5.1 7.2 0 0-3.1 14.7-3.9 17.3l-5 6.5-5.4-1.7-4.2-14.2 5.7-11.2z" fill="#f0c7b1" stroke-width="none" opacity="1"></path><path id="SvgjsPath4922" d="M141.2 104.7c.2-.4 6-10 6-10l2.3 7.9-2.6-2.4-1.6 2.9s.3 5 .2 5.5c0 .5-2.4 4.3-2.4 4.3l-1.9-8.2z" fill="#d19271" stroke-width="none" opacity="1"></path><path id="SvgjsPath4923" d="m141.6 98 5.2-8.9c-2.2.9-7.7 1.8-7.7 1.8l-5.7 13.3 4.2 14.2 5.4 1.7-3.6-3.4 2.2-18.7z" fill="#e1ac8f" stroke-width="none" opacity="1"></path></g></g><g id="svga-group-faceshape-wrap"><g id="svga-group-faceshape-single"><path id="SvgjsPath4223" d="M138.1 60c-6.9-11.6-19.7-19.5-19.7-19.5-7.2-1.5-18.4-2.3-18.4-2.3s-11.1.8-18.4 2.3c0 0-12.8 7.9-19.7 19.5 0 0-5.1 14.5-5.3 24.8l2.7 31.9 3.5 23.4 12.1 7.4L100 152l25.1-4.5 12.1-7.4 3.5-23.4 2.7-31.9c-.2-10.3-5.3-24.8-5.3-24.8z" fill="#f0c7b1" stroke-width="none" opacity="1" stroke="none"></path><path id="SvgjsPath4224" d="m99.7 147.6-24.6-2.2-10-7-4.5-54.5 4.7-22.1c2.5-4.3 17.5-18.7 17.5-18.7l17.2-3 18.4.4c-7.2-1.5-18.4-2.3-18.4-2.3s-11.1.8-18.4 2.3c0 0-12.8 7.9-19.7 19.5 0 0-5.1 14.5-5.3 24.8l2.7 31.9 3.5 23.4 12.1 7.4L100 152l25.1-4.5 12.1-7.4-13.4 5.5-24.1 2z" fill="#d19271" stroke-width="none" opacity="1" stroke="none"></path></g></g><g id="svga-group-mouth-single-move" transform="matrix(1,0,0,1,0,-3)"><g id="svga-group-mouth-single" transform="matrix(0.9499999,0,0,0.9499999,5.022509892411804,6.650013299999998)"><path id="SvgjsPath4821" d="m82.7 123.9 1.5 4.2 10.2 9.1 13.4.1 8.6-8.4 1.1-5.2-17.4 4.4z" fill="#000000" stroke-width="none" opacity="1" transform="translate(0 2)"></path><path id="SvgjsPath4822" d="m100.1 128.1-17.4-4.2 1.9 4.1 15.4 3.5 16.1-2.8 1.4-5z" fill="#ffffff" stroke-width="none" opacity="1" transform="translate(0 2)"></path><path id="SvgjsPath4823" d="m81.8 123.6 18.3 4.8 18.8-5-19 3.3z" fill="#da7c87" stroke-width="none" opacity="1" transform="translate(0 2)" stroke="none"></path><path id="SvgjsPath4824" d="m117.4 121.1 1 2.4.2 2.7.7-2.4-.9-2.3-1-.4zm-34.9.5-.9 2.3.7 2.4.2-2.7 1-2.4-1 .4z" fill="#e1ac8f" stroke-width="none" opacity="1" transform="translate(0 2)" stroke="none"></path><path id="SvgjsPath4825" d="M96.6 140.1s1.4.8 1.6.8c.2 0 6.4-.1 6.4-.1l.7-.9-8.7.2z" fill="#d19271" stroke-width="none" opacity="1" transform="translate(0 2)" stroke="none"></path></g></g><g id="svga-group-eyes-left-move" transform="matrix(1,0,0,1,0,0)"><g id="svga-group-eyes-left"><g id="svga-group-eyesback-left"><path id="SvgjsPath5328" d="m90.8 98.4-5.4-7.8-4.8.6L69.9 97s8.1 5.1 10.3 6.1l8.1-2.9 2.5-1.8z" fill="#ffffff" stroke-width="none" opacity="1"></path></g><g id="svga-group-eyesiriswrapper-left" transform="matrix(1,0,0,1,0,0)"><g id="svga-group-eyesiriscontrol-left" transform="matrix(1,0,0,1,0,0)"><g id="svga-group-eyesiris-left"><path id="SvgjsPath5553" d="M76.2 97.3v-5.6l4.8-2.8 4.9 2.8v5.6l-4.9 2.8z" fill="#1a43dd" stroke-width="none" opacity="1" stroke="none"></path><path id="SvgjsPath5554" d="m78.6 98.7 2.4 1.4 4.9-2.8v-4.1l-2.5-1.4-4.8 2.8z" fill="#264ee5" stroke-width="none" opacity="1" stroke="none"></path><path id="SvgjsPath5555" d="m81 89.2 4.6 2.7v5.3L81 99.8l-4.6-2.7v-5.3l4.6-2.6m0-.6-5.1 2.9v5.9l5.1 2.9 5.1-2.9v-5.9L81 88.6z" fill="#0028be" stroke-width="none" opacity="1" stroke="none"></path><path id="SvgjsPath5556" d="M82.3 92.3h-2.6l-1.3 2.2 1.3 2.3h2.6l1.3-2.3z" fill="#000000" stroke-width="none" opacity="1"></path><path id="SvgjsPath5557" d="M79 91.6h2v2h-2v-2z" fill="#ffffff" stroke-width="none" opacity="1"></path><path id="SvgjsPath5558" d="M81.5 96.1h1.1v1.1h-1.1v-1.1z" fill="#ffffff" stroke-width="none" opacity="1"></path></g></g></g><g id="svga-group-eyesfront-left"><path id="SvgjsPath5336" d="M67.1 89.3v11.9l7.9 8.4h11.2l7.9-8.4V89.3l-7.9-8.4H75l-7.9 8.4zm2.8 7.7 10.7-5.8 4.8-.6 5.4 7.8-2.4 1.8-8.1 2.9c-2.3-1-10.4-6.1-10.4-6.1z" fill="#f0c7b1" stroke-width="none" opacity="1"></path><path id="SvgjsPath5337" d="m92.8 98.7-7.9 7.6L91 99l-2 .8 1.5-1.4-5.3-7.3h-4.5L70.5 97l-2.8 1.2 2.2-3.8 5.3-5.3 7.5-2.4 5.3 5.6z" fill="#e1ac8f" stroke-width="none" opacity="1"></path><path id="SvgjsPath5338" d="m85.2 90.2-4.7.5-9.3 4.6-3.7 3.3 13.3-7.1 4.6.4 5.1 6.5 1.1.6z" fill="#000000" stroke-width="none" opacity="1"></path></g></g></g><g id="svga-group-eyes-right-move" transform="matrix(1,0,0,1,0,0)"><g id="svga-group-eyes-right"><g id="svga-group-eyesback-right"><path id="SvgjsPath5329" d="m109.2 98.4 5.4-7.8 4.8.6 10.7 5.8s-8.1 5.1-10.3 6.1l-8.1-2.9-2.5-1.8z" fill="#ffffff" stroke-width="none" opacity="1"></path></g><g id="svga-group-eyesiriswrapper-right" transform="matrix(1,0,0,1,0,0)"><g id="svga-group-eyesiriscontrol-right" transform="matrix(1,0,0,1,0,0)"><g id="svga-group-eyesiris-right"><path id="SvgjsPath5559" d="M114.1 97.3v-5.6l4.9-2.8 4.8 2.8v5.6l-4.8 2.8z" fill="#1a43dd" stroke-width="none" opacity="1" stroke="none"></path><path id="SvgjsPath5560" d="m116.5 98.7 2.5 1.4 4.8-2.8v-4.1l-2.4-1.4-4.9 2.8z" fill="#264ee5" stroke-width="none" opacity="1" stroke="none"></path><path id="SvgjsPath5561" d="m119 89.2 4.6 2.7v5.3l-4.6 2.7-4.6-2.7v-5.3l4.6-2.7m0-.6-5.1 2.9v5.9l5.1 2.9 5.1-2.9v-5.9l-5.1-2.9z" fill="#0028be" stroke-width="none" opacity="1" stroke="none"></path><path id="SvgjsPath5562" d="M120.3 92.3h-2.6l-1.3 2.2 1.3 2.3h2.6l1.3-2.3z" fill="#000000" stroke-width="none" opacity="1"></path><path id="SvgjsPath5563" d="M117 91.6h2v2h-2v-2z" fill="#ffffff" stroke-width="none" opacity="1"></path><path id="SvgjsPath5564" d="M119.5 96.1h1.1v1.1h-1.1v-1.1z" fill="#ffffff" stroke-width="none" opacity="1"></path></g></g></g><g id="svga-group-eyesfront-right"><path id="SvgjsPath5339" d="M125 80.8h-11.2l-7.9 8.4v11.9l7.9 8.4H125l7.9-8.4V89.3l-7.9-8.5zm-5.2 22.3-8.1-2.9-2.4-1.8 5.4-7.8 4.8.6 10.7 5.8c-.1 0-8.2 5.1-10.4 6.1z" fill="#f0c7b1" stroke-width="none" opacity="1"></path><path id="SvgjsPath5342" d="m107.2 98.7 7.9 7.6L109 99l2 .8-1.5-1.4 5.3-7.3h4.5l10.2 5.9 2.8 1.2-2.2-3.8-5.3-5.3-7.5-2.4-5.3 5.6z" fill="#e1ac8f" stroke-width="none" opacity="1"></path><path id="SvgjsPath5343" d="m114.8 90.2 4.7.5 9.3 4.6 3.7 3.3-13.3-7.1-4.6.4-5.1 6.5-1.1.6z" fill="#000000" stroke-width="none" opacity="1"></path></g></g></g><g id="svga-group-facehighlight-single"></g><g id="svga-group-eyebrows-left-move" transform="matrix(1,0,0,1,0,0)"><g id="svga-group-eyebrows-left-rotate" transform="matrix(1,1.7453292519943295e-9,-1.7453292519943295e-9,1,1.4451326535436237e-7,-1.3849188462700113e-7)"><g id="svga-group-eyebrows-left"><path id="SvgjsPath5824" d="m92.6 78-1.7 6.7-2.1 1.3-23.2-1.6-.2-5.9 9.8-1.7 14.7-.2z" fill="#a46c47" stroke-width="none" opacity="1" stroke="none"></path><path id="SvgjsPath5825" d="M88.8 86h-.5c1-1.5 2.5-3.8 3.8-5.8l-.4 1.6-1.8 3.6-1.1.6zM84 76.7h.9c.1 2.9.3 6.9.4 9.1l-1.7-.1.4-9zm3.7 9.2-1.6-.1c.9-2.3 2.4-6.7 3.3-9.2h.5l.5.3-2.7 9zm-10.4-9.1 2.2 8.6-1-.1-1.3-8.5h.1zm-1.6 8.3-1.2-.1-3.7-7.5h.2l4.7 7.6zm-10.2-2.7v-.5l4.2 2.8-2-.1-2.2-2.2zm4.9 2.3-5-6v-.2l6.5 6.4-1.5-.2zm10.5.7-1.2-.1-.2-8.7h.3l1.1 8.8z" fill="#955932" stroke-width="none" opacity="1" stroke="none"></path></g></g></g><g id="svga-group-eyebrows-right-move" transform="matrix(1,0,0,1,0,0)"><g id="svga-group-eyebrows-right-rotate" transform="matrix(1,1.7453292519943295e-9,-1.7453292519943295e-9,1,1.4451326535436237e-7,-2.1057397248114285e-7)"><g id="svga-group-eyebrows-right"><path id="SvgjsPath5826" d="m107.4 78 1.7 6.7 2.1 1.3 23.2-1.6.2-5.9-9.8-1.7-14.7-.2z" fill="#a46c47" stroke-width="none" opacity="1" stroke="none"></path><path id="SvgjsPath5827" d="M111.2 86h.5c-1-1.5-2.5-3.8-3.8-5.8l.4 1.6 1.8 3.6 1.1.6zm4.8-9.3h-.9c-.1 2.9-.3 6.9-.4 9.1l1.7-.1-.4-9zm-3.7 9.2 1.6-.1c-.9-2.3-2.4-6.7-3.3-9.2h-.5l-.5.3 2.7 9zm10.4-9.1-2.2 8.6 1-.1 1.3-8.5h-.1zm1.6 8.3 1.2-.1 3.7-7.5h-.2l-4.7 7.6zm10.2-2.7v-.5l-4.2 2.8 2-.1 2.2-2.2zm-4.9 2.3 5-6v-.2l-6.5 6.4 1.5-.2zm-10.5.7 1.2-.1.2-8.7h-.3l-1.1 8.8z" fill="#955932" stroke-width="none" opacity="1" stroke="none"></path></g></g></g><g id="svga-group-beardwrap"><g id="svga-group-beard-single-move" transform="matrix(1,0,0,1,0,0)"><g id="svga-group-beard-single"><path id="SvgjsPath7649" d="m138.9 99.3-3.6 12.8L129 126l-3.5.6-2.2-4.8-3.7-2.2-9.7-.6-8.9 1.5h-2l-9-1.5-9.7.6-3.7 2.2-2.2 4.8-3.4-.6-6.2-13.9-3.7-12.8-2.3-.3-3.1 37.1 9.7 15 12.8 12.2 13.3 4.9h17.1l13.3-4.9 12.8-12.2 9.7-15 .9-17.1-4-20-2.4.3zm-21.8 38.4-9.2 7.5-5.1 1.5h-5.6l-5.1-1.5-9.2-7.5-.4-9.8 1.9-1.3 10-1h11.2l10 1 1.9 1.3-.4 9.8z" fill="#b64810" stroke-width="none" opacity="1" stroke="none"></path><path id="SvgjsPath7650" d="M74.3 142.7c.1 1.4 3.6 14.7 3.6 14.7l-1.2.1-1.4.4-2.6-4.6-1.6.5-3.1-6.1-1.2.9-2.6-12-1.7.4-1.3-19.9-.2-17.8-2.2-.3-4.1 18.2 1 18.9 9.7 15 12.8 12.2 13.3 4.9h17.1l13.3-4.9 12.8-12.2-6.9 4.9-6.2 5.2-.7-.9-8.1 4.2-.4-1.6-4.9 1.9-6.8-.8-1.2.8-6-2.2-2.1.9-5.3-3.8-3.8-.3-3.1-8.6.1-1.7-1.9 1v-9.5l-1.7.9.9-11.4-1.3.8.9-4.6.4 1.4 2.7-5.3 11.1-1.6s9.1 1.8 9.5 1.8 10.1-3.7 10.1-3.7l-8.9 1.5H99l-9-1.4-9.7.6-3.7 2.2-2.2 4.8s-.2 14.6-.1 16.1zm33.2-18.1-7-.6-7.2.8h-10l-2.5 2.1 1.8 5.1-.2-4.1 1.9-1.3 10-1h11.2l10 1 1.9 1.3-.4 9.8-9.2 7.6-5.1 1.5h-5.6l-5.1-1.5 1.4 1.6 2.2.4 3.4 1.4 1.6-.5 2.7.9 3-2.1 2.1 1.3 1.6-2.7 8.6-7.1 1.2-11.1-1-2.5-11.3-.3zm21.3 5.1s.4-2.9.2-3.7l-1.5.2 1.3 3.5zm6.4-17.6-5.1 11.3c.8-1.4 1.8-2.8 1.8-2.8l3.4-6.8 2.9-9 3.1-6-2.4.4-3.7 12.9zm-11 48.9 1.5-4.4-1.7 1.4 2.1-7.2-1 1.3 1.3-7.6-.4-2.3-.3-13.9-.4 3-.5-1.3-.1 14.7-.9-1.2-1 6.8-1.7 7.1-.8-.4-5.9 7.1 1.9 1.1 5.6-2.1 2.3-2.1z" fill="#a73800" stroke-width="none" opacity="1" stroke="none"></path></g></g></g><g id="svga-group-mustache-single-move" transform="matrix(1,0,0,1,0,0)"><g id="svga-group-mustache-single"></g></g><g id="svga-group-nose-single-move" transform="matrix(1,0,0,1,0,0)"><g id="svga-group-nose-single"><path id="SvgjsPath4563" d="m101.27 106.27-5.1.93-3.46-.09-.78 1.36-2.73 7.56 5.1 1.86.49-1.51 1.24.22.09 1.51 3.91.36 3.85-.4v-1.73l1.29-.09.53 1.59 5.24-1.9-2.85-7.47z" fill="#f0c7b1" stroke-width="none" opacity="1" transform="translate(0 1)" stroke="none"></path><path id="SvgjsPath4564" d="m97.36 96.05-2.52 10.77h-2.25l-.66 1.65 1.21-1.03 3.07.2 5.38-1.02 2.12.47-2.8-1.22-5.11.47z" fill="#d19271" stroke-width="none" opacity="1" transform="translate(0 1)" stroke="none"></path><path id="SvgjsPath4565" d="m108.09 108.47 2.27 7.54-4.47 1.28-.55-1.71-1.78.3-.12 1.84-3.25.25h-.36l-3.24-.25-.12-1.84-1.78-.3-.55 1.71-4.47-1.28 2.26-7.54-3.43 7.44 6.01 2.66.36-1.71.92.13-.06 1.47 4.1.37h.36l4.11-.37-.07-1.47.92-.13.37 1.71 6-2.66z" fill="#d19271" stroke-width="none" opacity="1" transform="translate(0 1)" stroke="none"></path><path id="SvgjsPath4566" d="M96.57 109.26c.33-.11 6.43-.78 6.43-.78l1.77 1.77-1.66 4.99-6.2-.66-.34-5.32z" fill="#f8d5c3" stroke-width="none" opacity="1" transform="translate(0 1)" stroke="none"></path></g></g><g id="svga-group-hair-front"><path id="SvgjsPath3981" d="M143.01 63.98c-2.54-5.83-19.15-23.84-19.15-23.84L100 36.33l-23.86 3.8s-16.61 18-19.15 23.84l-.93 24.3 4.58 4.03h2.56l.73-24.9 17.21-16.84 7.32 8.24L100 60.55l11.54-1.75 7.32-8.24 17.21 16.84.73 24.9h2.56l4.58-4.03-.93-24.29z" fill="#955932" stroke-width="none" opacity="1" stroke="none"></path><path id="SvgjsPath3982" d="M123.86 40.14 100 36.33l-9.09 1.45-11.22 4.57s8.72 13.88 9.72 13.88c.99 0 12.49 1.78 13.48 1.59.99-.2 8.33-.99 8.33-.99l8.33-7.53 18.04 18.24.92 24.77h.86l4.58-4.03-.93-24.3c-2.55-5.84-19.16-23.84-19.16-23.84z" fill="#a46c47" stroke-width="none" opacity="1" stroke="none"></path></g><g id="svga-group-glasses-single-move" transform="matrix(1,0,0,1,0,0)"><g id="svga-group-glasses-single"></g></g></g></g></g><rect id="svga-credit-rect" width="200" height="15" x="0" y="185" fill="#ecf0f1" opacity="0.5" style="display: none;"></rect><text id="svga-credit-text" font-family="Avenir Next, Roboto, Helvetica, Arial, sans-serif" font-size="10px" text-anchor="start" font-weight="400" size="10px" anchor="start" weight="400" fill="#333333" x="33.40447998046875" y="182.60824704170227" style="display: none;"><tspan id="SvgjsTspan3752" dy="13" x="33.40447998046875">Created on AvatarMaker.com</tspan></text></g><defs id="SvgjsDefs3699"></defs></svg>